<mxfile host="app.diagrams.net" modified="2023-12-04T01:02:08.926Z" agent="Mozilla/5.0 (Windows NT 10.0; Win64; x64) AppleWebKit/537.36 (KHTML, like Gecko) Chrome/118.0.0.0 Safari/537.36 OPR/104.0.0.0" etag="E_FmQ9eixIwzP1clocGF" version="22.1.5" type="github">
  <diagram id="C5RBs43oDa-KdzZeNtuy" name="Page-1">
    <mxGraphModel dx="3436" dy="1240" grid="1" gridSize="10" guides="1" tooltips="1" connect="1" arrows="1" fold="1" page="1" pageScale="1" pageWidth="827" pageHeight="1169" math="0" shadow="0">
      <root>
        <mxCell id="WIyWlLk6GJQsqaUBKTNV-0" />
        <mxCell id="WIyWlLk6GJQsqaUBKTNV-1" parent="WIyWlLk6GJQsqaUBKTNV-0" />
        <mxCell id="7p2oG9inGJbOri-XmN-j-11" style="edgeStyle=orthogonalEdgeStyle;rounded=0;orthogonalLoop=1;jettySize=auto;html=1;" edge="1" parent="WIyWlLk6GJQsqaUBKTNV-1" source="7p2oG9inGJbOri-XmN-j-0" target="7p2oG9inGJbOri-XmN-j-10">
          <mxGeometry relative="1" as="geometry" />
        </mxCell>
        <mxCell id="7p2oG9inGJbOri-XmN-j-0" value="Clientes" style="rounded=1;whiteSpace=wrap;html=1;" vertex="1" parent="WIyWlLk6GJQsqaUBKTNV-1">
          <mxGeometry x="-500" y="130" width="120" height="60" as="geometry" />
        </mxCell>
        <mxCell id="7p2oG9inGJbOri-XmN-j-1" value="Pipes" style="rounded=1;whiteSpace=wrap;html=1;" vertex="1" parent="WIyWlLk6GJQsqaUBKTNV-1">
          <mxGeometry x="-220" y="30" width="120" height="60" as="geometry" />
        </mxCell>
        <mxCell id="7p2oG9inGJbOri-XmN-j-2" value="Documentos" style="rounded=1;whiteSpace=wrap;html=1;" vertex="1" parent="WIyWlLk6GJQsqaUBKTNV-1">
          <mxGeometry x="83" y="40" width="120" height="60" as="geometry" />
        </mxCell>
        <mxCell id="7p2oG9inGJbOri-XmN-j-15" style="edgeStyle=orthogonalEdgeStyle;rounded=0;orthogonalLoop=1;jettySize=auto;html=1;entryX=0.5;entryY=0;entryDx=0;entryDy=0;" edge="1" parent="WIyWlLk6GJQsqaUBKTNV-1" source="7p2oG9inGJbOri-XmN-j-10" target="7p2oG9inGJbOri-XmN-j-14">
          <mxGeometry relative="1" as="geometry" />
        </mxCell>
        <mxCell id="7p2oG9inGJbOri-XmN-j-24" style="edgeStyle=orthogonalEdgeStyle;rounded=0;orthogonalLoop=1;jettySize=auto;html=1;" edge="1" parent="WIyWlLk6GJQsqaUBKTNV-1" source="7p2oG9inGJbOri-XmN-j-10" target="7p2oG9inGJbOri-XmN-j-12">
          <mxGeometry relative="1" as="geometry" />
        </mxCell>
        <mxCell id="7p2oG9inGJbOri-XmN-j-10" value="Aba" style="ellipse;whiteSpace=wrap;html=1;" vertex="1" parent="WIyWlLk6GJQsqaUBKTNV-1">
          <mxGeometry x="-500" y="270" width="120" height="80" as="geometry" />
        </mxCell>
        <mxCell id="7p2oG9inGJbOri-XmN-j-12" value="Criar aba" style="rounded=1;whiteSpace=wrap;html=1;" vertex="1" parent="WIyWlLk6GJQsqaUBKTNV-1">
          <mxGeometry x="-695" y="280" width="120" height="60" as="geometry" />
        </mxCell>
        <mxCell id="7p2oG9inGJbOri-XmN-j-14" value="Lista de abas" style="rounded=1;whiteSpace=wrap;html=1;" vertex="1" parent="WIyWlLk6GJQsqaUBKTNV-1">
          <mxGeometry x="-500" y="420" width="120" height="60" as="geometry" />
        </mxCell>
        <mxCell id="7p2oG9inGJbOri-XmN-j-19" style="edgeStyle=orthogonalEdgeStyle;rounded=0;orthogonalLoop=1;jettySize=auto;html=1;entryX=0.5;entryY=0;entryDx=0;entryDy=0;" edge="1" parent="WIyWlLk6GJQsqaUBKTNV-1" source="7p2oG9inGJbOri-XmN-j-16" target="7p2oG9inGJbOri-XmN-j-17">
          <mxGeometry relative="1" as="geometry">
            <Array as="points">
              <mxPoint x="-440" y="520" />
              <mxPoint x="-550" y="520" />
            </Array>
          </mxGeometry>
        </mxCell>
        <mxCell id="7p2oG9inGJbOri-XmN-j-23" style="edgeStyle=orthogonalEdgeStyle;rounded=0;orthogonalLoop=1;jettySize=auto;html=1;entryX=0.5;entryY=0;entryDx=0;entryDy=0;" edge="1" parent="WIyWlLk6GJQsqaUBKTNV-1" source="7p2oG9inGJbOri-XmN-j-16" target="7p2oG9inGJbOri-XmN-j-22">
          <mxGeometry relative="1" as="geometry">
            <Array as="points">
              <mxPoint x="-320" y="520" />
              <mxPoint x="-200" y="520" />
            </Array>
          </mxGeometry>
        </mxCell>
        <mxCell id="7p2oG9inGJbOri-XmN-j-16" value="Lista de abas" style="rounded=1;whiteSpace=wrap;html=1;" vertex="1" parent="WIyWlLk6GJQsqaUBKTNV-1">
          <mxGeometry x="-500" y="420" width="120" height="60" as="geometry" />
        </mxCell>
        <mxCell id="7p2oG9inGJbOri-XmN-j-17" value="Editar aba" style="rounded=1;whiteSpace=wrap;html=1;" vertex="1" parent="WIyWlLk6GJQsqaUBKTNV-1">
          <mxGeometry x="-610" y="571" width="120" height="60" as="geometry" />
        </mxCell>
        <mxCell id="7p2oG9inGJbOri-XmN-j-18" value="" style="strokeWidth=2;html=1;shape=mxgraph.flowchart.annotation_2;align=left;labelPosition=right;pointerEvents=1;rotation=-180;" vertex="1" parent="WIyWlLk6GJQsqaUBKTNV-1">
          <mxGeometry x="-660" y="551" width="50" height="100" as="geometry" />
        </mxCell>
        <mxCell id="7p2oG9inGJbOri-XmN-j-20" value="Alterar Informações" style="text;html=1;align=center;verticalAlign=middle;resizable=0;points=[];autosize=1;strokeColor=none;fillColor=none;" vertex="1" parent="WIyWlLk6GJQsqaUBKTNV-1">
          <mxGeometry x="-790" y="539" width="130" height="30" as="geometry" />
        </mxCell>
        <mxCell id="7p2oG9inGJbOri-XmN-j-21" value="Apagar aba" style="text;html=1;align=center;verticalAlign=middle;resizable=0;points=[];autosize=1;strokeColor=none;fillColor=none;" vertex="1" parent="WIyWlLk6GJQsqaUBKTNV-1">
          <mxGeometry x="-750" y="631" width="90" height="30" as="geometry" />
        </mxCell>
        <mxCell id="7p2oG9inGJbOri-XmN-j-26" style="edgeStyle=orthogonalEdgeStyle;rounded=0;orthogonalLoop=1;jettySize=auto;html=1;entryX=0.5;entryY=0;entryDx=0;entryDy=0;" edge="1" parent="WIyWlLk6GJQsqaUBKTNV-1" source="7p2oG9inGJbOri-XmN-j-22" target="7p2oG9inGJbOri-XmN-j-25">
          <mxGeometry relative="1" as="geometry" />
        </mxCell>
        <mxCell id="7p2oG9inGJbOri-XmN-j-36" style="edgeStyle=orthogonalEdgeStyle;rounded=0;orthogonalLoop=1;jettySize=auto;html=1;entryX=0.5;entryY=0;entryDx=0;entryDy=0;" edge="1" parent="WIyWlLk6GJQsqaUBKTNV-1" source="7p2oG9inGJbOri-XmN-j-22" target="7p2oG9inGJbOri-XmN-j-35">
          <mxGeometry relative="1" as="geometry" />
        </mxCell>
        <mxCell id="7p2oG9inGJbOri-XmN-j-22" value="Visualizar aba&lt;br&gt;(Tabela)" style="rounded=1;whiteSpace=wrap;html=1;" vertex="1" parent="WIyWlLk6GJQsqaUBKTNV-1">
          <mxGeometry x="-380" y="571" width="120" height="60" as="geometry" />
        </mxCell>
        <mxCell id="7p2oG9inGJbOri-XmN-j-28" style="edgeStyle=orthogonalEdgeStyle;rounded=0;orthogonalLoop=1;jettySize=auto;html=1;" edge="1" parent="WIyWlLk6GJQsqaUBKTNV-1" source="7p2oG9inGJbOri-XmN-j-25" target="7p2oG9inGJbOri-XmN-j-27">
          <mxGeometry relative="1" as="geometry" />
        </mxCell>
        <mxCell id="7p2oG9inGJbOri-XmN-j-25" value="Adicionar dado" style="rounded=1;whiteSpace=wrap;html=1;" vertex="1" parent="WIyWlLk6GJQsqaUBKTNV-1">
          <mxGeometry x="-500" y="730" width="120" height="60" as="geometry" />
        </mxCell>
        <mxCell id="7p2oG9inGJbOri-XmN-j-31" style="edgeStyle=orthogonalEdgeStyle;rounded=0;orthogonalLoop=1;jettySize=auto;html=1;" edge="1" parent="WIyWlLk6GJQsqaUBKTNV-1" source="7p2oG9inGJbOri-XmN-j-27" target="7p2oG9inGJbOri-XmN-j-30">
          <mxGeometry relative="1" as="geometry" />
        </mxCell>
        <mxCell id="7p2oG9inGJbOri-XmN-j-32" style="edgeStyle=orthogonalEdgeStyle;rounded=0;orthogonalLoop=1;jettySize=auto;html=1;" edge="1" parent="WIyWlLk6GJQsqaUBKTNV-1" source="7p2oG9inGJbOri-XmN-j-27" target="7p2oG9inGJbOri-XmN-j-29">
          <mxGeometry relative="1" as="geometry" />
        </mxCell>
        <mxCell id="7p2oG9inGJbOri-XmN-j-27" value="Tipo" style="strokeWidth=2;html=1;shape=mxgraph.flowchart.decision;whiteSpace=wrap;" vertex="1" parent="WIyWlLk6GJQsqaUBKTNV-1">
          <mxGeometry x="-490" y="840" width="100" height="100" as="geometry" />
        </mxCell>
        <mxCell id="7p2oG9inGJbOri-XmN-j-29" value="Pessoa" style="rounded=1;whiteSpace=wrap;html=1;" vertex="1" parent="WIyWlLk6GJQsqaUBKTNV-1">
          <mxGeometry x="-660" y="860" width="120" height="60" as="geometry" />
        </mxCell>
        <mxCell id="7p2oG9inGJbOri-XmN-j-30" value="Empresa" style="rounded=1;whiteSpace=wrap;html=1;" vertex="1" parent="WIyWlLk6GJQsqaUBKTNV-1">
          <mxGeometry x="-500" y="1000" width="120" height="60" as="geometry" />
        </mxCell>
        <mxCell id="7p2oG9inGJbOri-XmN-j-38" style="edgeStyle=orthogonalEdgeStyle;rounded=0;orthogonalLoop=1;jettySize=auto;html=1;entryX=0.5;entryY=0;entryDx=0;entryDy=0;" edge="1" parent="WIyWlLk6GJQsqaUBKTNV-1" source="7p2oG9inGJbOri-XmN-j-35" target="7p2oG9inGJbOri-XmN-j-37">
          <mxGeometry relative="1" as="geometry" />
        </mxCell>
        <mxCell id="7p2oG9inGJbOri-XmN-j-35" value="Configurações" style="rounded=1;whiteSpace=wrap;html=1;" vertex="1" parent="WIyWlLk6GJQsqaUBKTNV-1">
          <mxGeometry x="-330" y="730" width="120" height="60" as="geometry" />
        </mxCell>
        <mxCell id="7p2oG9inGJbOri-XmN-j-37" value="Importar Planilha" style="rounded=1;whiteSpace=wrap;html=1;" vertex="1" parent="WIyWlLk6GJQsqaUBKTNV-1">
          <mxGeometry x="-330" y="860" width="120" height="60" as="geometry" />
        </mxCell>
        <mxCell id="7p2oG9inGJbOri-XmN-j-41" value="Campo de pesquisa" style="shape=tape;whiteSpace=wrap;html=1;strokeWidth=2;size=0.19" vertex="1" parent="WIyWlLk6GJQsqaUBKTNV-1">
          <mxGeometry x="-180" y="475" width="100" height="65" as="geometry" />
        </mxCell>
        <mxCell id="7p2oG9inGJbOri-XmN-j-42" style="edgeStyle=orthogonalEdgeStyle;rounded=0;orthogonalLoop=1;jettySize=auto;html=1;entryX=0;entryY=0.5;entryDx=0;entryDy=0;entryPerimeter=0;" edge="1" parent="WIyWlLk6GJQsqaUBKTNV-1" source="7p2oG9inGJbOri-XmN-j-22" target="7p2oG9inGJbOri-XmN-j-41">
          <mxGeometry relative="1" as="geometry" />
        </mxCell>
        <mxCell id="7p2oG9inGJbOri-XmN-j-43" value="Mapa" style="shape=tape;whiteSpace=wrap;html=1;strokeWidth=2;size=0.19" vertex="1" parent="WIyWlLk6GJQsqaUBKTNV-1">
          <mxGeometry x="-180" y="386.5" width="100" height="65" as="geometry" />
        </mxCell>
        <mxCell id="7p2oG9inGJbOri-XmN-j-44" style="edgeStyle=orthogonalEdgeStyle;rounded=0;orthogonalLoop=1;jettySize=auto;html=1;entryX=0;entryY=0.5;entryDx=0;entryDy=0;entryPerimeter=0;" edge="1" parent="WIyWlLk6GJQsqaUBKTNV-1" source="7p2oG9inGJbOri-XmN-j-22" target="7p2oG9inGJbOri-XmN-j-43">
          <mxGeometry relative="1" as="geometry" />
        </mxCell>
        <mxCell id="7p2oG9inGJbOri-XmN-j-45" value="Filtros" style="shape=tape;whiteSpace=wrap;html=1;strokeWidth=2;size=0.19" vertex="1" parent="WIyWlLk6GJQsqaUBKTNV-1">
          <mxGeometry x="-180" y="567.5" width="100" height="65" as="geometry" />
        </mxCell>
        <mxCell id="7p2oG9inGJbOri-XmN-j-46" style="edgeStyle=orthogonalEdgeStyle;rounded=0;orthogonalLoop=1;jettySize=auto;html=1;entryX=0;entryY=0.5;entryDx=0;entryDy=0;entryPerimeter=0;" edge="1" parent="WIyWlLk6GJQsqaUBKTNV-1" source="7p2oG9inGJbOri-XmN-j-22" target="7p2oG9inGJbOri-XmN-j-45">
          <mxGeometry relative="1" as="geometry" />
        </mxCell>
        <mxCell id="7p2oG9inGJbOri-XmN-j-47" value="Sort nos campos&lt;br&gt;da tabela" style="shape=tape;whiteSpace=wrap;html=1;strokeWidth=2;size=0.19" vertex="1" parent="WIyWlLk6GJQsqaUBKTNV-1">
          <mxGeometry x="-180" y="656.5" width="100" height="65" as="geometry" />
        </mxCell>
        <mxCell id="7p2oG9inGJbOri-XmN-j-48" style="edgeStyle=orthogonalEdgeStyle;rounded=0;orthogonalLoop=1;jettySize=auto;html=1;entryX=0;entryY=0.5;entryDx=0;entryDy=0;entryPerimeter=0;" edge="1" parent="WIyWlLk6GJQsqaUBKTNV-1" source="7p2oG9inGJbOri-XmN-j-22" target="7p2oG9inGJbOri-XmN-j-47">
          <mxGeometry relative="1" as="geometry" />
        </mxCell>
        <mxCell id="7p2oG9inGJbOri-XmN-j-49" style="edgeStyle=orthogonalEdgeStyle;rounded=0;orthogonalLoop=1;jettySize=auto;html=1;" edge="1" parent="WIyWlLk6GJQsqaUBKTNV-1" source="7p2oG9inGJbOri-XmN-j-50" target="7p2oG9inGJbOri-XmN-j-53">
          <mxGeometry relative="1" as="geometry" />
        </mxCell>
        <mxCell id="7p2oG9inGJbOri-XmN-j-50" value="Produtos" style="rounded=1;whiteSpace=wrap;html=1;" vertex="1" parent="WIyWlLk6GJQsqaUBKTNV-1">
          <mxGeometry x="348" y="130" width="120" height="60" as="geometry" />
        </mxCell>
        <mxCell id="7p2oG9inGJbOri-XmN-j-51" style="edgeStyle=orthogonalEdgeStyle;rounded=0;orthogonalLoop=1;jettySize=auto;html=1;entryX=0.5;entryY=0;entryDx=0;entryDy=0;" edge="1" parent="WIyWlLk6GJQsqaUBKTNV-1" source="7p2oG9inGJbOri-XmN-j-53" target="7p2oG9inGJbOri-XmN-j-55">
          <mxGeometry relative="1" as="geometry" />
        </mxCell>
        <mxCell id="7p2oG9inGJbOri-XmN-j-52" style="edgeStyle=orthogonalEdgeStyle;rounded=0;orthogonalLoop=1;jettySize=auto;html=1;" edge="1" parent="WIyWlLk6GJQsqaUBKTNV-1" source="7p2oG9inGJbOri-XmN-j-53" target="7p2oG9inGJbOri-XmN-j-54">
          <mxGeometry relative="1" as="geometry" />
        </mxCell>
        <mxCell id="7p2oG9inGJbOri-XmN-j-53" value="Aba" style="ellipse;whiteSpace=wrap;html=1;" vertex="1" parent="WIyWlLk6GJQsqaUBKTNV-1">
          <mxGeometry x="348" y="270" width="120" height="80" as="geometry" />
        </mxCell>
        <mxCell id="7p2oG9inGJbOri-XmN-j-54" value="Criar aba" style="rounded=1;whiteSpace=wrap;html=1;" vertex="1" parent="WIyWlLk6GJQsqaUBKTNV-1">
          <mxGeometry x="153" y="280" width="120" height="60" as="geometry" />
        </mxCell>
        <mxCell id="7p2oG9inGJbOri-XmN-j-55" value="Lista de abas" style="rounded=1;whiteSpace=wrap;html=1;" vertex="1" parent="WIyWlLk6GJQsqaUBKTNV-1">
          <mxGeometry x="348" y="420" width="120" height="60" as="geometry" />
        </mxCell>
        <mxCell id="7p2oG9inGJbOri-XmN-j-56" style="edgeStyle=orthogonalEdgeStyle;rounded=0;orthogonalLoop=1;jettySize=auto;html=1;entryX=0.5;entryY=0;entryDx=0;entryDy=0;" edge="1" parent="WIyWlLk6GJQsqaUBKTNV-1" source="7p2oG9inGJbOri-XmN-j-58" target="7p2oG9inGJbOri-XmN-j-59">
          <mxGeometry relative="1" as="geometry">
            <Array as="points">
              <mxPoint x="408" y="520" />
              <mxPoint x="298" y="520" />
            </Array>
          </mxGeometry>
        </mxCell>
        <mxCell id="7p2oG9inGJbOri-XmN-j-57" style="edgeStyle=orthogonalEdgeStyle;rounded=0;orthogonalLoop=1;jettySize=auto;html=1;entryX=0.5;entryY=0;entryDx=0;entryDy=0;" edge="1" parent="WIyWlLk6GJQsqaUBKTNV-1" source="7p2oG9inGJbOri-XmN-j-58" target="7p2oG9inGJbOri-XmN-j-65">
          <mxGeometry relative="1" as="geometry">
            <Array as="points">
              <mxPoint x="528" y="520" />
              <mxPoint x="648" y="520" />
            </Array>
          </mxGeometry>
        </mxCell>
        <mxCell id="7p2oG9inGJbOri-XmN-j-58" value="Lista de abas" style="rounded=1;whiteSpace=wrap;html=1;" vertex="1" parent="WIyWlLk6GJQsqaUBKTNV-1">
          <mxGeometry x="348" y="420" width="120" height="60" as="geometry" />
        </mxCell>
        <mxCell id="7p2oG9inGJbOri-XmN-j-59" value="Editar aba" style="rounded=1;whiteSpace=wrap;html=1;" vertex="1" parent="WIyWlLk6GJQsqaUBKTNV-1">
          <mxGeometry x="238" y="571" width="120" height="60" as="geometry" />
        </mxCell>
        <mxCell id="7p2oG9inGJbOri-XmN-j-60" value="" style="strokeWidth=2;html=1;shape=mxgraph.flowchart.annotation_2;align=left;labelPosition=right;pointerEvents=1;rotation=-180;" vertex="1" parent="WIyWlLk6GJQsqaUBKTNV-1">
          <mxGeometry x="188" y="551" width="50" height="100" as="geometry" />
        </mxCell>
        <mxCell id="7p2oG9inGJbOri-XmN-j-61" value="Alterar Informações" style="text;html=1;align=center;verticalAlign=middle;resizable=0;points=[];autosize=1;strokeColor=none;fillColor=none;" vertex="1" parent="WIyWlLk6GJQsqaUBKTNV-1">
          <mxGeometry x="58" y="539" width="130" height="30" as="geometry" />
        </mxCell>
        <mxCell id="7p2oG9inGJbOri-XmN-j-62" value="Apagar aba" style="text;html=1;align=center;verticalAlign=middle;resizable=0;points=[];autosize=1;strokeColor=none;fillColor=none;" vertex="1" parent="WIyWlLk6GJQsqaUBKTNV-1">
          <mxGeometry x="98" y="631" width="90" height="30" as="geometry" />
        </mxCell>
        <mxCell id="7p2oG9inGJbOri-XmN-j-63" style="edgeStyle=orthogonalEdgeStyle;rounded=0;orthogonalLoop=1;jettySize=auto;html=1;entryX=0.5;entryY=0;entryDx=0;entryDy=0;" edge="1" parent="WIyWlLk6GJQsqaUBKTNV-1" source="7p2oG9inGJbOri-XmN-j-65" target="7p2oG9inGJbOri-XmN-j-67">
          <mxGeometry relative="1" as="geometry">
            <Array as="points">
              <mxPoint x="528" y="680" />
              <mxPoint x="260" y="680" />
            </Array>
          </mxGeometry>
        </mxCell>
        <mxCell id="7p2oG9inGJbOri-XmN-j-64" style="edgeStyle=orthogonalEdgeStyle;rounded=0;orthogonalLoop=1;jettySize=auto;html=1;entryX=0.5;entryY=0;entryDx=0;entryDy=0;" edge="1" parent="WIyWlLk6GJQsqaUBKTNV-1" source="7p2oG9inGJbOri-XmN-j-65" target="7p2oG9inGJbOri-XmN-j-74">
          <mxGeometry relative="1" as="geometry" />
        </mxCell>
        <mxCell id="7p2oG9inGJbOri-XmN-j-65" value="Visualizar aba&lt;br&gt;(Tabela)" style="rounded=1;whiteSpace=wrap;html=1;" vertex="1" parent="WIyWlLk6GJQsqaUBKTNV-1">
          <mxGeometry x="468" y="571" width="120" height="60" as="geometry" />
        </mxCell>
        <mxCell id="7p2oG9inGJbOri-XmN-j-66" style="edgeStyle=orthogonalEdgeStyle;rounded=0;orthogonalLoop=1;jettySize=auto;html=1;" edge="1" parent="WIyWlLk6GJQsqaUBKTNV-1" source="7p2oG9inGJbOri-XmN-j-67" target="7p2oG9inGJbOri-XmN-j-70">
          <mxGeometry relative="1" as="geometry" />
        </mxCell>
        <mxCell id="7p2oG9inGJbOri-XmN-j-67" value="Adicionar dado" style="rounded=1;whiteSpace=wrap;html=1;" vertex="1" parent="WIyWlLk6GJQsqaUBKTNV-1">
          <mxGeometry x="200" y="730" width="120" height="60" as="geometry" />
        </mxCell>
        <mxCell id="7p2oG9inGJbOri-XmN-j-68" style="edgeStyle=orthogonalEdgeStyle;rounded=0;orthogonalLoop=1;jettySize=auto;html=1;" edge="1" parent="WIyWlLk6GJQsqaUBKTNV-1" source="7p2oG9inGJbOri-XmN-j-70" target="7p2oG9inGJbOri-XmN-j-72">
          <mxGeometry relative="1" as="geometry" />
        </mxCell>
        <mxCell id="7p2oG9inGJbOri-XmN-j-69" style="edgeStyle=orthogonalEdgeStyle;rounded=0;orthogonalLoop=1;jettySize=auto;html=1;" edge="1" parent="WIyWlLk6GJQsqaUBKTNV-1" source="7p2oG9inGJbOri-XmN-j-70" target="7p2oG9inGJbOri-XmN-j-71">
          <mxGeometry relative="1" as="geometry" />
        </mxCell>
        <mxCell id="7p2oG9inGJbOri-XmN-j-85" style="edgeStyle=orthogonalEdgeStyle;rounded=0;orthogonalLoop=1;jettySize=auto;html=1;entryX=0;entryY=0.5;entryDx=0;entryDy=0;" edge="1" parent="WIyWlLk6GJQsqaUBKTNV-1" source="7p2oG9inGJbOri-XmN-j-70" target="7p2oG9inGJbOri-XmN-j-84">
          <mxGeometry relative="1" as="geometry" />
        </mxCell>
        <mxCell id="7p2oG9inGJbOri-XmN-j-70" value="Tipo" style="strokeWidth=2;html=1;shape=mxgraph.flowchart.decision;whiteSpace=wrap;" vertex="1" parent="WIyWlLk6GJQsqaUBKTNV-1">
          <mxGeometry x="210" y="840" width="100" height="100" as="geometry" />
        </mxCell>
        <mxCell id="7p2oG9inGJbOri-XmN-j-71" value="Produto" style="rounded=1;whiteSpace=wrap;html=1;" vertex="1" parent="WIyWlLk6GJQsqaUBKTNV-1">
          <mxGeometry x="40" y="860" width="120" height="60" as="geometry" />
        </mxCell>
        <mxCell id="7p2oG9inGJbOri-XmN-j-72" value="Grupo" style="rounded=1;whiteSpace=wrap;html=1;" vertex="1" parent="WIyWlLk6GJQsqaUBKTNV-1">
          <mxGeometry x="200" y="1000" width="120" height="60" as="geometry" />
        </mxCell>
        <mxCell id="7p2oG9inGJbOri-XmN-j-73" style="edgeStyle=orthogonalEdgeStyle;rounded=0;orthogonalLoop=1;jettySize=auto;html=1;entryX=0.5;entryY=0;entryDx=0;entryDy=0;" edge="1" parent="WIyWlLk6GJQsqaUBKTNV-1" source="7p2oG9inGJbOri-XmN-j-74" target="7p2oG9inGJbOri-XmN-j-75">
          <mxGeometry relative="1" as="geometry" />
        </mxCell>
        <mxCell id="7p2oG9inGJbOri-XmN-j-74" value="Configurações" style="rounded=1;whiteSpace=wrap;html=1;" vertex="1" parent="WIyWlLk6GJQsqaUBKTNV-1">
          <mxGeometry x="518" y="730" width="120" height="60" as="geometry" />
        </mxCell>
        <mxCell id="7p2oG9inGJbOri-XmN-j-75" value="Importar Planilha" style="rounded=1;whiteSpace=wrap;html=1;" vertex="1" parent="WIyWlLk6GJQsqaUBKTNV-1">
          <mxGeometry x="518" y="860" width="120" height="60" as="geometry" />
        </mxCell>
        <mxCell id="7p2oG9inGJbOri-XmN-j-76" value="Campo de pesquisa" style="shape=tape;whiteSpace=wrap;html=1;strokeWidth=2;size=0.19" vertex="1" parent="WIyWlLk6GJQsqaUBKTNV-1">
          <mxGeometry x="668" y="475" width="100" height="65" as="geometry" />
        </mxCell>
        <mxCell id="7p2oG9inGJbOri-XmN-j-77" style="edgeStyle=orthogonalEdgeStyle;rounded=0;orthogonalLoop=1;jettySize=auto;html=1;entryX=0;entryY=0.5;entryDx=0;entryDy=0;entryPerimeter=0;" edge="1" parent="WIyWlLk6GJQsqaUBKTNV-1" source="7p2oG9inGJbOri-XmN-j-65" target="7p2oG9inGJbOri-XmN-j-76">
          <mxGeometry relative="1" as="geometry" />
        </mxCell>
        <mxCell id="7p2oG9inGJbOri-XmN-j-80" value="Filtros" style="shape=tape;whiteSpace=wrap;html=1;strokeWidth=2;size=0.19" vertex="1" parent="WIyWlLk6GJQsqaUBKTNV-1">
          <mxGeometry x="668" y="567.5" width="100" height="65" as="geometry" />
        </mxCell>
        <mxCell id="7p2oG9inGJbOri-XmN-j-81" style="edgeStyle=orthogonalEdgeStyle;rounded=0;orthogonalLoop=1;jettySize=auto;html=1;entryX=0;entryY=0.5;entryDx=0;entryDy=0;entryPerimeter=0;" edge="1" parent="WIyWlLk6GJQsqaUBKTNV-1" source="7p2oG9inGJbOri-XmN-j-65" target="7p2oG9inGJbOri-XmN-j-80">
          <mxGeometry relative="1" as="geometry" />
        </mxCell>
        <mxCell id="7p2oG9inGJbOri-XmN-j-82" value="Sort nos campos&lt;br&gt;da tabela" style="shape=tape;whiteSpace=wrap;html=1;strokeWidth=2;size=0.19" vertex="1" parent="WIyWlLk6GJQsqaUBKTNV-1">
          <mxGeometry x="668" y="656.5" width="100" height="65" as="geometry" />
        </mxCell>
        <mxCell id="7p2oG9inGJbOri-XmN-j-83" style="edgeStyle=orthogonalEdgeStyle;rounded=0;orthogonalLoop=1;jettySize=auto;html=1;entryX=0;entryY=0.5;entryDx=0;entryDy=0;entryPerimeter=0;" edge="1" parent="WIyWlLk6GJQsqaUBKTNV-1" source="7p2oG9inGJbOri-XmN-j-65" target="7p2oG9inGJbOri-XmN-j-82">
          <mxGeometry relative="1" as="geometry" />
        </mxCell>
        <mxCell id="7p2oG9inGJbOri-XmN-j-84" value="Familia" style="rounded=1;whiteSpace=wrap;html=1;" vertex="1" parent="WIyWlLk6GJQsqaUBKTNV-1">
          <mxGeometry x="358" y="860" width="120" height="60" as="geometry" />
        </mxCell>
        <mxCell id="7p2oG9inGJbOri-XmN-j-91" style="edgeStyle=orthogonalEdgeStyle;rounded=0;orthogonalLoop=1;jettySize=auto;html=1;entryX=0;entryY=0.5;entryDx=0;entryDy=0;" edge="1" parent="WIyWlLk6GJQsqaUBKTNV-1" source="7p2oG9inGJbOri-XmN-j-86" target="7p2oG9inGJbOri-XmN-j-90">
          <mxGeometry relative="1" as="geometry" />
        </mxCell>
        <mxCell id="7p2oG9inGJbOri-XmN-j-92" style="edgeStyle=orthogonalEdgeStyle;rounded=0;orthogonalLoop=1;jettySize=auto;html=1;entryX=0;entryY=0.5;entryDx=0;entryDy=0;" edge="1" parent="WIyWlLk6GJQsqaUBKTNV-1" source="7p2oG9inGJbOri-XmN-j-86" target="7p2oG9inGJbOri-XmN-j-89">
          <mxGeometry relative="1" as="geometry" />
        </mxCell>
        <mxCell id="7p2oG9inGJbOri-XmN-j-93" style="edgeStyle=orthogonalEdgeStyle;rounded=0;orthogonalLoop=1;jettySize=auto;html=1;entryX=0;entryY=0.5;entryDx=0;entryDy=0;" edge="1" parent="WIyWlLk6GJQsqaUBKTNV-1" source="7p2oG9inGJbOri-XmN-j-86" target="7p2oG9inGJbOri-XmN-j-88">
          <mxGeometry relative="1" as="geometry" />
        </mxCell>
        <mxCell id="7p2oG9inGJbOri-XmN-j-86" value="Modo de&lt;br&gt;visualização" style="shape=tape;whiteSpace=wrap;html=1;strokeWidth=2;size=0.19" vertex="1" parent="WIyWlLk6GJQsqaUBKTNV-1">
          <mxGeometry x="668" y="386.5" width="100" height="65" as="geometry" />
        </mxCell>
        <mxCell id="7p2oG9inGJbOri-XmN-j-87" style="edgeStyle=orthogonalEdgeStyle;rounded=0;orthogonalLoop=1;jettySize=auto;html=1;entryX=0;entryY=0.5;entryDx=0;entryDy=0;entryPerimeter=0;" edge="1" parent="WIyWlLk6GJQsqaUBKTNV-1" source="7p2oG9inGJbOri-XmN-j-65" target="7p2oG9inGJbOri-XmN-j-86">
          <mxGeometry relative="1" as="geometry" />
        </mxCell>
        <mxCell id="7p2oG9inGJbOri-XmN-j-88" value="Produto" style="ellipse;whiteSpace=wrap;html=1;" vertex="1" parent="WIyWlLk6GJQsqaUBKTNV-1">
          <mxGeometry x="850" y="291.75" width="105" height="70" as="geometry" />
        </mxCell>
        <mxCell id="7p2oG9inGJbOri-XmN-j-89" value="Familia" style="ellipse;whiteSpace=wrap;html=1;" vertex="1" parent="WIyWlLk6GJQsqaUBKTNV-1">
          <mxGeometry x="850" y="385.25" width="105" height="70" as="geometry" />
        </mxCell>
        <mxCell id="7p2oG9inGJbOri-XmN-j-90" value="Grupo" style="ellipse;whiteSpace=wrap;html=1;" vertex="1" parent="WIyWlLk6GJQsqaUBKTNV-1">
          <mxGeometry x="850" y="476.25" width="105" height="70" as="geometry" />
        </mxCell>
      </root>
    </mxGraphModel>
  </diagram>
</mxfile>
